<mxfile host="app.diagrams.net" modified="2023-11-23T16:56:18.388Z" agent="Mozilla/5.0 (Windows NT 10.0; Win64; x64) AppleWebKit/537.36 (KHTML, like Gecko) Chrome/116.0.5845.664 YaBrowser/23.9.5.664 Yowser/2.5 Safari/537.36" etag="8shDJBeHo1NxrV5pTnRb" version="22.1.3" type="device">
  <diagram name="Страница — 1" id="zRkvuRP1mX55MVzGkOBg">
    <mxGraphModel dx="2029" dy="668" grid="1" gridSize="10" guides="1" tooltips="1" connect="1" arrows="1" fold="1" page="1" pageScale="1" pageWidth="827" pageHeight="1169" math="0" shadow="0">
      <root>
        <mxCell id="0" />
        <mxCell id="1" parent="0" />
        <mxCell id="L6zB859tz35N77A7_o4x-1" value="Пользователь" style="shape=umlActor;verticalLabelPosition=bottom;verticalAlign=top;html=1;outlineConnect=0;" parent="1" vertex="1">
          <mxGeometry x="740" y="250" width="30" height="60" as="geometry" />
        </mxCell>
        <mxCell id="L6zB859tz35N77A7_o4x-2" value="Пользователь&lt;br&gt;голосового помощника" style="shape=umlActor;verticalLabelPosition=bottom;verticalAlign=top;html=1;outlineConnect=0;" parent="1" vertex="1">
          <mxGeometry x="-700" y="248" width="30" height="60" as="geometry" />
        </mxCell>
        <mxCell id="L6zB859tz35N77A7_o4x-4" value="Интерфейс пользователя" style="swimlane;whiteSpace=wrap;html=1;" parent="1" vertex="1">
          <mxGeometry x="520" y="170" width="160" height="240" as="geometry">
            <mxRectangle x="520" y="170" width="190" height="30" as="alternateBounds" />
          </mxGeometry>
        </mxCell>
        <mxCell id="L6zB859tz35N77A7_o4x-3" value="Интерфейс добавления вопроса" style="rounded=0;whiteSpace=wrap;html=1;fillColor=#dae8fc;strokeColor=#6c8ebf;" parent="L6zB859tz35N77A7_o4x-4" vertex="1">
          <mxGeometry x="20" y="30" width="120" height="60" as="geometry" />
        </mxCell>
        <mxCell id="L6zB859tz35N77A7_o4x-5" value="Интерфейс добавления данных" style="rounded=0;whiteSpace=wrap;html=1;fillColor=#dae8fc;strokeColor=#6c8ebf;" parent="L6zB859tz35N77A7_o4x-4" vertex="1">
          <mxGeometry x="20" y="100" width="120" height="60" as="geometry" />
        </mxCell>
        <mxCell id="L6zB859tz35N77A7_o4x-6" value="Интерфейс тестирования и сбора аналитики" style="rounded=0;whiteSpace=wrap;html=1;fillColor=#dae8fc;strokeColor=#6c8ebf;" parent="L6zB859tz35N77A7_o4x-4" vertex="1">
          <mxGeometry x="20" y="170" width="120" height="60" as="geometry" />
        </mxCell>
        <mxCell id="L6zB859tz35N77A7_o4x-8" value="Система редактирования диалога" style="rounded=0;whiteSpace=wrap;html=1;fillColor=#e1d5e7;strokeColor=#9673a6;" parent="1" vertex="1">
          <mxGeometry x="292" y="200" width="120" height="60" as="geometry" />
        </mxCell>
        <mxCell id="L6zB859tz35N77A7_o4x-9" value="" style="endArrow=classic;html=1;rounded=0;exitX=0;exitY=0.5;exitDx=0;exitDy=0;entryX=1;entryY=0.5;entryDx=0;entryDy=0;" parent="1" source="L6zB859tz35N77A7_o4x-3" target="L6zB859tz35N77A7_o4x-8" edge="1">
          <mxGeometry width="50" height="50" relative="1" as="geometry">
            <mxPoint x="390" y="330" as="sourcePoint" />
            <mxPoint x="440" y="280" as="targetPoint" />
          </mxGeometry>
        </mxCell>
        <mxCell id="L6zB859tz35N77A7_o4x-10" value="Вопрос" style="text;html=1;align=center;verticalAlign=middle;resizable=0;points=[];autosize=1;strokeColor=none;fillColor=none;" parent="1" vertex="1">
          <mxGeometry x="445" y="200" width="60" height="30" as="geometry" />
        </mxCell>
        <mxCell id="L6zB859tz35N77A7_o4x-11" value="Дерево диалога" style="rounded=0;whiteSpace=wrap;html=1;" parent="1" vertex="1">
          <mxGeometry x="100" y="200" width="120" height="60" as="geometry" />
        </mxCell>
        <mxCell id="L6zB859tz35N77A7_o4x-12" value="Семантическая&lt;br&gt;&amp;nbsp;сеть" style="rounded=0;whiteSpace=wrap;html=1;" parent="1" vertex="1">
          <mxGeometry x="101" y="270" width="120" height="60" as="geometry" />
        </mxCell>
        <mxCell id="L6zB859tz35N77A7_o4x-13" value="База знаний" style="rounded=0;whiteSpace=wrap;html=1;" parent="1" vertex="1">
          <mxGeometry x="250" y="380" width="120" height="60" as="geometry" />
        </mxCell>
        <mxCell id="L6zB859tz35N77A7_o4x-14" value="Система автоматического&lt;br&gt;тестирования" style="rounded=0;whiteSpace=wrap;html=1;fillColor=#e1d5e7;strokeColor=#9673a6;" parent="1" vertex="1">
          <mxGeometry x="385" y="380" width="120" height="60" as="geometry" />
        </mxCell>
        <mxCell id="L6zB859tz35N77A7_o4x-15" value="" style="endArrow=classic;html=1;rounded=0;exitX=0;exitY=0.5;exitDx=0;exitDy=0;entryX=1;entryY=0.5;entryDx=0;entryDy=0;" parent="1" source="L6zB859tz35N77A7_o4x-8" target="L6zB859tz35N77A7_o4x-11" edge="1">
          <mxGeometry width="50" height="50" relative="1" as="geometry">
            <mxPoint x="390" y="350" as="sourcePoint" />
            <mxPoint x="440" y="300" as="targetPoint" />
          </mxGeometry>
        </mxCell>
        <mxCell id="L6zB859tz35N77A7_o4x-16" value="Сцена" style="text;html=1;align=center;verticalAlign=middle;resizable=0;points=[];autosize=1;strokeColor=none;fillColor=none;" parent="1" vertex="1">
          <mxGeometry x="228" y="200" width="60" height="30" as="geometry" />
        </mxCell>
        <mxCell id="L6zB859tz35N77A7_o4x-17" value="Система анализа&lt;br&gt;данных" style="rounded=0;whiteSpace=wrap;html=1;fillColor=#e1d5e7;strokeColor=#9673a6;" parent="1" vertex="1">
          <mxGeometry x="291" y="270" width="120" height="60" as="geometry" />
        </mxCell>
        <mxCell id="L6zB859tz35N77A7_o4x-18" value="" style="endArrow=classic;html=1;rounded=0;exitX=0;exitY=0.25;exitDx=0;exitDy=0;entryX=1;entryY=0.25;entryDx=0;entryDy=0;" parent="1" source="L6zB859tz35N77A7_o4x-5" target="L6zB859tz35N77A7_o4x-17" edge="1">
          <mxGeometry width="50" height="50" relative="1" as="geometry">
            <mxPoint x="390" y="390" as="sourcePoint" />
            <mxPoint x="440" y="340" as="targetPoint" />
          </mxGeometry>
        </mxCell>
        <mxCell id="L6zB859tz35N77A7_o4x-19" value="Запрос&lt;br&gt;на обновление" style="text;html=1;align=center;verticalAlign=middle;resizable=0;points=[];autosize=1;strokeColor=none;fillColor=none;" parent="1" vertex="1">
          <mxGeometry x="420" y="264" width="110" height="40" as="geometry" />
        </mxCell>
        <mxCell id="L6zB859tz35N77A7_o4x-24" value="" style="endArrow=classic;html=1;rounded=0;exitX=0;exitY=0.75;exitDx=0;exitDy=0;entryX=1;entryY=0.75;entryDx=0;entryDy=0;" parent="1" source="L6zB859tz35N77A7_o4x-5" target="L6zB859tz35N77A7_o4x-17" edge="1">
          <mxGeometry width="50" height="50" relative="1" as="geometry">
            <mxPoint x="390" y="390" as="sourcePoint" />
            <mxPoint x="440" y="340" as="targetPoint" />
          </mxGeometry>
        </mxCell>
        <mxCell id="L6zB859tz35N77A7_o4x-25" value="Файлы" style="text;html=1;align=center;verticalAlign=middle;resizable=0;points=[];autosize=1;strokeColor=none;fillColor=none;" parent="1" vertex="1">
          <mxGeometry x="430" y="310" width="60" height="30" as="geometry" />
        </mxCell>
        <mxCell id="L6zB859tz35N77A7_o4x-26" value="" style="endArrow=classic;html=1;rounded=0;exitX=0.25;exitY=1;exitDx=0;exitDy=0;entryX=0.25;entryY=0;entryDx=0;entryDy=0;" parent="1" edge="1">
          <mxGeometry width="50" height="50" relative="1" as="geometry">
            <mxPoint x="295" y="330" as="sourcePoint" />
            <mxPoint x="295" y="380" as="targetPoint" />
          </mxGeometry>
        </mxCell>
        <mxCell id="L6zB859tz35N77A7_o4x-27" value="" style="endArrow=classic;html=1;rounded=0;exitX=0.75;exitY=0;exitDx=0;exitDy=0;entryX=0.75;entryY=1;entryDx=0;entryDy=0;" parent="1" edge="1">
          <mxGeometry width="50" height="50" relative="1" as="geometry">
            <mxPoint x="329" y="380" as="sourcePoint" />
            <mxPoint x="329" y="330" as="targetPoint" />
          </mxGeometry>
        </mxCell>
        <mxCell id="L6zB859tz35N77A7_o4x-29" value="Данные" style="text;html=1;align=center;verticalAlign=middle;resizable=0;points=[];autosize=1;strokeColor=none;fillColor=none;" parent="1" vertex="1">
          <mxGeometry x="324" y="338" width="70" height="30" as="geometry" />
        </mxCell>
        <mxCell id="L6zB859tz35N77A7_o4x-31" value="Файл" style="text;html=1;align=center;verticalAlign=middle;resizable=0;points=[];autosize=1;strokeColor=none;fillColor=none;" parent="1" vertex="1">
          <mxGeometry x="245" y="338" width="50" height="30" as="geometry" />
        </mxCell>
        <mxCell id="L6zB859tz35N77A7_o4x-33" value="" style="endArrow=classic;html=1;rounded=0;exitX=1;exitY=0.25;exitDx=0;exitDy=0;entryX=0;entryY=0.25;entryDx=0;entryDy=0;entryPerimeter=0;startArrow=classic;startFill=1;" parent="1" edge="1">
          <mxGeometry width="50" height="50" relative="1" as="geometry">
            <mxPoint x="221" y="301" as="sourcePoint" />
            <mxPoint x="291" y="301" as="targetPoint" />
          </mxGeometry>
        </mxCell>
        <mxCell id="L6zB859tz35N77A7_o4x-34" value="Файлы логирования" style="rounded=0;whiteSpace=wrap;html=1;" parent="1" vertex="1">
          <mxGeometry x="-75" y="598" width="120" height="60" as="geometry" />
        </mxCell>
        <mxCell id="L6zB859tz35N77A7_o4x-35" value="" style="endArrow=classic;html=1;rounded=0;exitX=0;exitY=0.5;exitDx=0;exitDy=0;entryX=0.5;entryY=0;entryDx=0;entryDy=0;" parent="1" source="L6zB859tz35N77A7_o4x-6" target="L6zB859tz35N77A7_o4x-14" edge="1">
          <mxGeometry width="50" height="50" relative="1" as="geometry">
            <mxPoint x="480" y="420" as="sourcePoint" />
            <mxPoint x="530" y="370" as="targetPoint" />
            <Array as="points">
              <mxPoint x="445" y="370" />
            </Array>
          </mxGeometry>
        </mxCell>
        <mxCell id="7grSPCQ8X-4k6aLJv_-3-1" value="Интерфейс пользователя&lt;br&gt;голосового помощника" style="swimlane;whiteSpace=wrap;html=1;startSize=40;" parent="1" vertex="1">
          <mxGeometry x="-640" y="150" width="170" height="290" as="geometry" />
        </mxCell>
        <mxCell id="7grSPCQ8X-4k6aLJv_-3-4" value="Интерфейс&lt;br&gt;голосового&lt;br&gt;ввода" style="rounded=0;whiteSpace=wrap;html=1;fillColor=#dae8fc;strokeColor=#6c8ebf;" parent="7grSPCQ8X-4k6aLJv_-3-1" vertex="1">
          <mxGeometry x="25" y="54" width="120" height="60" as="geometry" />
        </mxCell>
        <mxCell id="7grSPCQ8X-4k6aLJv_-3-3" value="Интерфейс чата" style="rounded=0;whiteSpace=wrap;html=1;fillColor=#dae8fc;strokeColor=#6c8ebf;" parent="7grSPCQ8X-4k6aLJv_-3-1" vertex="1">
          <mxGeometry x="25" y="130" width="120" height="60" as="geometry" />
        </mxCell>
        <mxCell id="7grSPCQ8X-4k6aLJv_-3-44" value="Интерфейс&amp;nbsp; голосового вывода" style="rounded=0;whiteSpace=wrap;html=1;fillColor=#dae8fc;strokeColor=#6c8ebf;" parent="7grSPCQ8X-4k6aLJv_-3-1" vertex="1">
          <mxGeometry x="25" y="210" width="120" height="60" as="geometry" />
        </mxCell>
        <mxCell id="7grSPCQ8X-4k6aLJv_-3-6" value="Система генерации&lt;br&gt;голоса" style="rounded=0;whiteSpace=wrap;html=1;fillColor=#e1d5e7;strokeColor=#9673a6;" parent="1" vertex="1">
          <mxGeometry x="-290" y="360" width="120" height="60" as="geometry" />
        </mxCell>
        <mxCell id="7grSPCQ8X-4k6aLJv_-3-8" value="Система распознавания голоса" style="rounded=0;whiteSpace=wrap;html=1;fillColor=#e1d5e7;strokeColor=#9673a6;" parent="1" vertex="1">
          <mxGeometry x="-440" y="110" width="120" height="60" as="geometry" />
        </mxCell>
        <mxCell id="7grSPCQ8X-4k6aLJv_-3-9" value="Система выделения&lt;br&gt;интентов" style="rounded=0;whiteSpace=wrap;html=1;fillColor=#e1d5e7;strokeColor=#9673a6;" parent="1" vertex="1">
          <mxGeometry x="-270" y="200" width="120" height="60" as="geometry" />
        </mxCell>
        <mxCell id="7grSPCQ8X-4k6aLJv_-3-10" value="База данных словоформ" style="rounded=0;whiteSpace=wrap;html=1;" parent="1" vertex="1">
          <mxGeometry x="-270" y="40" width="120" height="60" as="geometry" />
        </mxCell>
        <mxCell id="7grSPCQ8X-4k6aLJv_-3-12" value="Речь" style="text;html=1;align=center;verticalAlign=middle;resizable=0;points=[];autosize=1;strokeColor=none;fillColor=none;" parent="1" vertex="1">
          <mxGeometry x="-463" y="180" width="50" height="30" as="geometry" />
        </mxCell>
        <mxCell id="7grSPCQ8X-4k6aLJv_-3-13" value="" style="endArrow=classic;html=1;rounded=0;exitX=1;exitY=0.5;exitDx=0;exitDy=0;edgeStyle=orthogonalEdgeStyle;entryX=0;entryY=0.5;entryDx=0;entryDy=0;" parent="1" source="7grSPCQ8X-4k6aLJv_-3-4" target="7grSPCQ8X-4k6aLJv_-3-8" edge="1">
          <mxGeometry width="50" height="50" relative="1" as="geometry">
            <mxPoint y="440" as="sourcePoint" />
            <mxPoint x="-270" y="320" as="targetPoint" />
            <Array as="points">
              <mxPoint x="-460" y="234" />
              <mxPoint x="-460" y="140" />
            </Array>
          </mxGeometry>
        </mxCell>
        <mxCell id="7grSPCQ8X-4k6aLJv_-3-15" value="Контекст" style="rounded=0;whiteSpace=wrap;html=1;" parent="1" vertex="1">
          <mxGeometry x="-80" y="40" width="120" height="60" as="geometry" />
        </mxCell>
        <mxCell id="7grSPCQ8X-4k6aLJv_-3-16" value="Система ведения диалога" style="rounded=0;whiteSpace=wrap;html=1;fillColor=#e1d5e7;strokeColor=#9673a6;" parent="1" vertex="1">
          <mxGeometry x="-80" y="200" width="120" height="60" as="geometry" />
        </mxCell>
        <mxCell id="7grSPCQ8X-4k6aLJv_-3-18" value="" style="endArrow=classic;html=1;rounded=0;exitX=1;exitY=0.5;exitDx=0;exitDy=0;entryX=0;entryY=0.5;entryDx=0;entryDy=0;" parent="1" source="7grSPCQ8X-4k6aLJv_-3-9" target="7grSPCQ8X-4k6aLJv_-3-16" edge="1">
          <mxGeometry width="50" height="50" relative="1" as="geometry">
            <mxPoint y="440" as="sourcePoint" />
            <mxPoint x="50" y="390" as="targetPoint" />
          </mxGeometry>
        </mxCell>
        <mxCell id="7grSPCQ8X-4k6aLJv_-3-20" value="" style="endArrow=classic;html=1;rounded=0;exitX=1;exitY=0.5;exitDx=0;exitDy=0;entryX=0;entryY=0.5;entryDx=0;entryDy=0;edgeStyle=orthogonalEdgeStyle;" parent="1" source="7grSPCQ8X-4k6aLJv_-3-3" target="7grSPCQ8X-4k6aLJv_-3-9" edge="1">
          <mxGeometry width="50" height="50" relative="1" as="geometry">
            <mxPoint y="440" as="sourcePoint" />
            <mxPoint x="50" y="390" as="targetPoint" />
          </mxGeometry>
        </mxCell>
        <mxCell id="7grSPCQ8X-4k6aLJv_-3-21" value="" style="endArrow=classic;html=1;rounded=0;exitX=0.25;exitY=0;exitDx=0;exitDy=0;entryX=0.25;entryY=1;entryDx=0;entryDy=0;" parent="1" source="7grSPCQ8X-4k6aLJv_-3-9" target="7grSPCQ8X-4k6aLJv_-3-10" edge="1">
          <mxGeometry width="50" height="50" relative="1" as="geometry">
            <mxPoint y="440" as="sourcePoint" />
            <mxPoint x="50" y="390" as="targetPoint" />
          </mxGeometry>
        </mxCell>
        <mxCell id="7grSPCQ8X-4k6aLJv_-3-22" value="Строка" style="text;html=1;align=center;verticalAlign=middle;resizable=0;points=[];autosize=1;strokeColor=none;fillColor=none;" parent="1" vertex="1">
          <mxGeometry x="-295" y="150" width="60" height="30" as="geometry" />
        </mxCell>
        <mxCell id="7grSPCQ8X-4k6aLJv_-3-23" value="" style="endArrow=classic;html=1;rounded=0;exitX=0.75;exitY=1;exitDx=0;exitDy=0;entryX=0.75;entryY=0;entryDx=0;entryDy=0;" parent="1" source="7grSPCQ8X-4k6aLJv_-3-10" target="7grSPCQ8X-4k6aLJv_-3-9" edge="1">
          <mxGeometry width="50" height="50" relative="1" as="geometry">
            <mxPoint y="440" as="sourcePoint" />
            <mxPoint x="50" y="390" as="targetPoint" />
          </mxGeometry>
        </mxCell>
        <mxCell id="7grSPCQ8X-4k6aLJv_-3-24" value="Словоформа" style="text;html=1;align=center;verticalAlign=middle;resizable=0;points=[];autosize=1;strokeColor=none;fillColor=none;" parent="1" vertex="1">
          <mxGeometry x="-190" y="150" width="100" height="30" as="geometry" />
        </mxCell>
        <mxCell id="7grSPCQ8X-4k6aLJv_-3-25" value="" style="endArrow=classic;html=1;rounded=0;exitX=1;exitY=0.25;exitDx=0;exitDy=0;entryX=0;entryY=0.25;entryDx=0;entryDy=0;" parent="1" source="7grSPCQ8X-4k6aLJv_-3-16" target="L6zB859tz35N77A7_o4x-11" edge="1">
          <mxGeometry width="50" height="50" relative="1" as="geometry">
            <mxPoint y="440" as="sourcePoint" />
            <mxPoint x="50" y="390" as="targetPoint" />
          </mxGeometry>
        </mxCell>
        <mxCell id="7grSPCQ8X-4k6aLJv_-3-26" value="" style="endArrow=classic;html=1;rounded=0;exitX=0;exitY=0.75;exitDx=0;exitDy=0;entryX=1;entryY=0.75;entryDx=0;entryDy=0;" parent="1" source="L6zB859tz35N77A7_o4x-11" target="7grSPCQ8X-4k6aLJv_-3-16" edge="1">
          <mxGeometry width="50" height="50" relative="1" as="geometry">
            <mxPoint y="440" as="sourcePoint" />
            <mxPoint x="50" y="390" as="targetPoint" />
          </mxGeometry>
        </mxCell>
        <mxCell id="7grSPCQ8X-4k6aLJv_-3-27" value="Интенты, их значения,&lt;br&gt;сцена" style="text;html=1;align=center;verticalAlign=middle;resizable=0;points=[];autosize=1;strokeColor=none;fillColor=none;" parent="1" vertex="1">
          <mxGeometry y="170" width="150" height="40" as="geometry" />
        </mxCell>
        <mxCell id="7grSPCQ8X-4k6aLJv_-3-28" value="Интенты, &lt;br&gt;их значения" style="text;html=1;align=center;verticalAlign=middle;resizable=0;points=[];autosize=1;strokeColor=none;fillColor=none;" parent="1" vertex="1">
          <mxGeometry x="-160" y="190" width="90" height="40" as="geometry" />
        </mxCell>
        <mxCell id="7grSPCQ8X-4k6aLJv_-3-29" value="Текст" style="text;html=1;align=center;verticalAlign=middle;resizable=0;points=[];autosize=1;strokeColor=none;fillColor=none;" parent="1" vertex="1">
          <mxGeometry x="-340" y="234" width="50" height="30" as="geometry" />
        </mxCell>
        <mxCell id="7grSPCQ8X-4k6aLJv_-3-30" value="" style="endArrow=classic;html=1;rounded=0;edgeStyle=orthogonalEdgeStyle;entryX=0;entryY=0.5;entryDx=0;entryDy=0;exitX=1;exitY=0.5;exitDx=0;exitDy=0;" parent="1" source="7grSPCQ8X-4k6aLJv_-3-8" target="7grSPCQ8X-4k6aLJv_-3-9" edge="1">
          <mxGeometry width="50" height="50" relative="1" as="geometry">
            <mxPoint x="-90" y="460" as="sourcePoint" />
            <mxPoint x="-40" y="410" as="targetPoint" />
            <Array as="points">
              <mxPoint x="-310" y="140" />
              <mxPoint x="-310" y="230" />
            </Array>
          </mxGeometry>
        </mxCell>
        <mxCell id="7grSPCQ8X-4k6aLJv_-3-31" value="Сцена" style="text;html=1;align=center;verticalAlign=middle;resizable=0;points=[];autosize=1;strokeColor=none;fillColor=none;" parent="1" vertex="1">
          <mxGeometry x="45" y="220" width="60" height="30" as="geometry" />
        </mxCell>
        <mxCell id="7grSPCQ8X-4k6aLJv_-3-32" value="" style="endArrow=classic;html=1;rounded=0;exitX=0.5;exitY=0;exitDx=0;exitDy=0;entryX=0.5;entryY=1;entryDx=0;entryDy=0;startArrow=classic;startFill=1;" parent="1" source="7grSPCQ8X-4k6aLJv_-3-16" target="7grSPCQ8X-4k6aLJv_-3-15" edge="1">
          <mxGeometry width="50" height="50" relative="1" as="geometry">
            <mxPoint x="-90" y="460" as="sourcePoint" />
            <mxPoint x="-40" y="410" as="targetPoint" />
          </mxGeometry>
        </mxCell>
        <mxCell id="7grSPCQ8X-4k6aLJv_-3-33" value="Интенты,&lt;br&gt;их значения" style="text;html=1;align=center;verticalAlign=middle;resizable=0;points=[];autosize=1;strokeColor=none;fillColor=none;" parent="1" vertex="1">
          <mxGeometry x="-20" y="120" width="90" height="40" as="geometry" />
        </mxCell>
        <mxCell id="7grSPCQ8X-4k6aLJv_-3-36" value="" style="endArrow=classic;html=1;rounded=0;exitX=0.75;exitY=1;exitDx=0;exitDy=0;entryX=0;entryY=0.25;entryDx=0;entryDy=0;edgeStyle=orthogonalEdgeStyle;startArrow=classic;startFill=1;" parent="1" source="7grSPCQ8X-4k6aLJv_-3-16" target="L6zB859tz35N77A7_o4x-12" edge="1">
          <mxGeometry width="50" height="50" relative="1" as="geometry">
            <mxPoint x="-90" y="460" as="sourcePoint" />
            <mxPoint x="10" y="430" as="targetPoint" />
          </mxGeometry>
        </mxCell>
        <mxCell id="7grSPCQ8X-4k6aLJv_-3-37" value="Интенты, &lt;br&gt;их значения" style="text;html=1;align=center;verticalAlign=middle;resizable=0;points=[];autosize=1;strokeColor=none;fillColor=none;" parent="1" vertex="1">
          <mxGeometry x="-30" y="280" width="90" height="40" as="geometry" />
        </mxCell>
        <mxCell id="7grSPCQ8X-4k6aLJv_-3-38" value="" style="endArrow=classic;html=1;rounded=0;exitX=0.25;exitY=1;exitDx=0;exitDy=0;entryX=1;entryY=0.75;entryDx=0;entryDy=0;edgeStyle=orthogonalEdgeStyle;" parent="1" source="7grSPCQ8X-4k6aLJv_-3-16" target="7grSPCQ8X-4k6aLJv_-3-3" edge="1">
          <mxGeometry width="50" height="50" relative="1" as="geometry">
            <mxPoint x="-50" y="510" as="sourcePoint" />
            <mxPoint y="460" as="targetPoint" />
          </mxGeometry>
        </mxCell>
        <mxCell id="7grSPCQ8X-4k6aLJv_-3-39" value="" style="endArrow=classic;html=1;rounded=0;edgeStyle=orthogonalEdgeStyle;entryX=0.5;entryY=0;entryDx=0;entryDy=0;" parent="1" target="7grSPCQ8X-4k6aLJv_-3-6" edge="1">
          <mxGeometry width="50" height="50" relative="1" as="geometry">
            <mxPoint x="-50" y="260" as="sourcePoint" />
            <mxPoint x="-70" y="390" as="targetPoint" />
            <Array as="points">
              <mxPoint x="-50" y="326" />
              <mxPoint x="-230" y="326" />
            </Array>
          </mxGeometry>
        </mxCell>
        <mxCell id="7grSPCQ8X-4k6aLJv_-3-41" value="Текст" style="text;html=1;align=center;verticalAlign=middle;resizable=0;points=[];autosize=1;strokeColor=none;fillColor=none;" parent="1" vertex="1">
          <mxGeometry x="-160" y="330" width="50" height="30" as="geometry" />
        </mxCell>
        <mxCell id="7grSPCQ8X-4k6aLJv_-3-43" value="" style="endArrow=classic;html=1;rounded=0;exitX=0;exitY=0.5;exitDx=0;exitDy=0;entryX=1;entryY=0.5;entryDx=0;entryDy=0;" parent="1" source="7grSPCQ8X-4k6aLJv_-3-6" target="7grSPCQ8X-4k6aLJv_-3-44" edge="1">
          <mxGeometry width="50" height="50" relative="1" as="geometry">
            <mxPoint x="-50" y="510" as="sourcePoint" />
            <mxPoint x="-460" y="410" as="targetPoint" />
          </mxGeometry>
        </mxCell>
        <mxCell id="7grSPCQ8X-4k6aLJv_-3-45" value="Речь" style="text;html=1;align=center;verticalAlign=middle;resizable=0;points=[];autosize=1;strokeColor=none;fillColor=none;" parent="1" vertex="1">
          <mxGeometry x="-413" y="360" width="50" height="30" as="geometry" />
        </mxCell>
        <mxCell id="zUFLxeMOSW5_unwBI3rd-1" value="Запрос на тестирование" style="text;html=1;strokeColor=none;fillColor=none;align=center;verticalAlign=middle;whiteSpace=wrap;rounded=0;" parent="1" vertex="1">
          <mxGeometry x="402" y="340" width="120" height="30" as="geometry" />
        </mxCell>
        <mxCell id="zUFLxeMOSW5_unwBI3rd-2" value="" style="endArrow=classic;html=1;rounded=0;exitX=0.5;exitY=1;exitDx=0;exitDy=0;entryX=0.08;entryY=1.009;entryDx=0;entryDy=0;entryPerimeter=0;" parent="1" source="L6zB859tz35N77A7_o4x-14" target="L6zB859tz35N77A7_o4x-6" edge="1">
          <mxGeometry width="50" height="50" relative="1" as="geometry">
            <mxPoint x="360" y="520" as="sourcePoint" />
            <mxPoint x="410" y="470" as="targetPoint" />
            <Array as="points">
              <mxPoint x="445" y="470" />
              <mxPoint x="550" y="470" />
            </Array>
          </mxGeometry>
        </mxCell>
        <mxCell id="zUFLxeMOSW5_unwBI3rd-3" value="Результаты &lt;br&gt;тестирования" style="text;html=1;strokeColor=none;fillColor=none;align=center;verticalAlign=middle;whiteSpace=wrap;rounded=0;" parent="1" vertex="1">
          <mxGeometry x="420" y="470" width="160" height="30" as="geometry" />
        </mxCell>
        <mxCell id="zUFLxeMOSW5_unwBI3rd-4" value="" style="endArrow=classic;html=1;rounded=0;exitX=0.25;exitY=1;exitDx=0;exitDy=0;entryX=0.5;entryY=1;entryDx=0;entryDy=0;" parent="1" source="L6zB859tz35N77A7_o4x-14" target="7grSPCQ8X-4k6aLJv_-3-16" edge="1">
          <mxGeometry width="50" height="50" relative="1" as="geometry">
            <mxPoint x="240" y="460" as="sourcePoint" />
            <mxPoint x="290" y="410" as="targetPoint" />
            <Array as="points">
              <mxPoint x="415" y="480" />
              <mxPoint x="-20" y="480" />
            </Array>
          </mxGeometry>
        </mxCell>
        <mxCell id="zUFLxeMOSW5_unwBI3rd-5" value="Запросы для тестов" style="text;html=1;strokeColor=none;fillColor=none;align=center;verticalAlign=middle;whiteSpace=wrap;rounded=0;" parent="1" vertex="1">
          <mxGeometry x="190" y="454" width="120" height="30" as="geometry" />
        </mxCell>
        <mxCell id="zUFLxeMOSW5_unwBI3rd-7" value="" style="endArrow=classic;html=1;rounded=0;exitX=0.419;exitY=1.026;exitDx=0;exitDy=0;exitPerimeter=0;entryX=0.375;entryY=1.015;entryDx=0;entryDy=0;entryPerimeter=0;" parent="1" source="7grSPCQ8X-4k6aLJv_-3-16" target="L6zB859tz35N77A7_o4x-14" edge="1">
          <mxGeometry width="50" height="50" relative="1" as="geometry">
            <mxPoint x="310" y="390" as="sourcePoint" />
            <mxPoint x="360" y="340" as="targetPoint" />
            <Array as="points">
              <mxPoint x="-30" y="490" />
              <mxPoint x="430" y="490" />
            </Array>
          </mxGeometry>
        </mxCell>
        <mxCell id="zUFLxeMOSW5_unwBI3rd-8" value="Ответы модуля ведения диалога" style="text;html=1;strokeColor=none;fillColor=none;align=center;verticalAlign=middle;whiteSpace=wrap;rounded=0;" parent="1" vertex="1">
          <mxGeometry x="168" y="488" width="232" height="30" as="geometry" />
        </mxCell>
        <mxCell id="zUFLxeMOSW5_unwBI3rd-10" value="" style="endArrow=classic;html=1;rounded=0;exitX=0.359;exitY=1.006;exitDx=0;exitDy=0;exitPerimeter=0;entryX=0.324;entryY=-0.001;entryDx=0;entryDy=0;entryPerimeter=0;" parent="1" source="7grSPCQ8X-4k6aLJv_-3-16" target="L6zB859tz35N77A7_o4x-34" edge="1">
          <mxGeometry width="50" height="50" relative="1" as="geometry">
            <mxPoint x="140" y="410" as="sourcePoint" />
            <mxPoint x="190" y="360" as="targetPoint" />
          </mxGeometry>
        </mxCell>
        <mxCell id="zUFLxeMOSW5_unwBI3rd-11" value="Реплики, успешность ответа" style="text;html=1;strokeColor=none;fillColor=none;align=center;verticalAlign=middle;whiteSpace=wrap;rounded=0;rotation=-90;" parent="1" vertex="1">
          <mxGeometry x="-135" y="476" width="170" height="30" as="geometry" />
        </mxCell>
        <mxCell id="zUFLxeMOSW5_unwBI3rd-14" value="" style="endArrow=classic;html=1;rounded=0;exitX=0.324;exitY=1;exitDx=0;exitDy=0;exitPerimeter=0;entryX=0.586;entryY=-0.001;entryDx=0;entryDy=0;entryPerimeter=0;" parent="1" source="L6zB859tz35N77A7_o4x-6" target="zUFLxeMOSW5_unwBI3rd-15" edge="1">
          <mxGeometry width="50" height="50" relative="1" as="geometry">
            <mxPoint x="430" y="560" as="sourcePoint" />
            <mxPoint x="578" y="520" as="targetPoint" />
          </mxGeometry>
        </mxCell>
        <mxCell id="zUFLxeMOSW5_unwBI3rd-15" value="Система сбора аналитики" style="rounded=0;whiteSpace=wrap;html=1;fillColor=#e1d5e7;strokeColor=#9673a6;" parent="1" vertex="1">
          <mxGeometry x="520" y="595" width="100" height="60" as="geometry" />
        </mxCell>
        <mxCell id="zUFLxeMOSW5_unwBI3rd-16" value="Запрос на получение статистики" style="text;html=1;strokeColor=none;fillColor=none;align=center;verticalAlign=middle;whiteSpace=wrap;rounded=0;rotation=-90;" parent="1" vertex="1">
          <mxGeometry x="498" y="493" width="160" height="30" as="geometry" />
        </mxCell>
        <mxCell id="zUFLxeMOSW5_unwBI3rd-18" value="" style="endArrow=classic;html=1;rounded=0;exitX=-0.005;exitY=0.577;exitDx=0;exitDy=0;entryX=1.003;entryY=0.535;entryDx=0;entryDy=0;exitPerimeter=0;entryPerimeter=0;" parent="1" source="zUFLxeMOSW5_unwBI3rd-15" target="L6zB859tz35N77A7_o4x-34" edge="1">
          <mxGeometry width="50" height="50" relative="1" as="geometry">
            <mxPoint x="500" y="428" as="sourcePoint" />
            <mxPoint x="550" y="378" as="targetPoint" />
          </mxGeometry>
        </mxCell>
        <mxCell id="zUFLxeMOSW5_unwBI3rd-19" value="Запрос на получение статистики" style="text;html=1;strokeColor=none;fillColor=none;align=center;verticalAlign=middle;whiteSpace=wrap;rounded=0;" parent="1" vertex="1">
          <mxGeometry x="230" y="602" width="220" height="30" as="geometry" />
        </mxCell>
        <mxCell id="zUFLxeMOSW5_unwBI3rd-21" value="" style="endArrow=classic;html=1;rounded=0;exitX=1.003;exitY=0.691;exitDx=0;exitDy=0;entryX=0;entryY=0.75;entryDx=0;entryDy=0;exitPerimeter=0;" parent="1" source="L6zB859tz35N77A7_o4x-34" target="zUFLxeMOSW5_unwBI3rd-15" edge="1">
          <mxGeometry width="50" height="50" relative="1" as="geometry">
            <mxPoint x="500" y="518" as="sourcePoint" />
            <mxPoint x="550" y="468" as="targetPoint" />
          </mxGeometry>
        </mxCell>
        <mxCell id="zUFLxeMOSW5_unwBI3rd-22" value="Статистика работы голосового помощника" style="text;html=1;strokeColor=none;fillColor=none;align=center;verticalAlign=middle;whiteSpace=wrap;rounded=0;" parent="1" vertex="1">
          <mxGeometry x="190" y="638" width="300" height="30" as="geometry" />
        </mxCell>
        <mxCell id="zUFLxeMOSW5_unwBI3rd-24" value="" style="endArrow=classic;html=1;rounded=0;exitX=0.833;exitY=0.004;exitDx=0;exitDy=0;exitPerimeter=0;entryX=0.5;entryY=1;entryDx=0;entryDy=0;entryPerimeter=0;" parent="1" target="L6zB859tz35N77A7_o4x-6" edge="1">
          <mxGeometry width="50" height="50" relative="1" as="geometry">
            <mxPoint x="600.96" y="595.24" as="sourcePoint" />
            <mxPoint x="601.5200000000004" y="400.65999999999985" as="targetPoint" />
          </mxGeometry>
        </mxCell>
        <mxCell id="zUFLxeMOSW5_unwBI3rd-25" value="Статистика" style="text;html=1;strokeColor=none;fillColor=none;align=center;verticalAlign=middle;whiteSpace=wrap;rounded=0;rotation=-90;" parent="1" vertex="1">
          <mxGeometry x="531" y="493" width="160" height="30" as="geometry" />
        </mxCell>
        <mxCell id="zUFLxeMOSW5_unwBI3rd-26" value="" style="endArrow=none;html=1;rounded=0;entryX=0.5;entryY=1;entryDx=0;entryDy=0;endFill=0;startArrow=classic;startFill=1;" parent="1" target="L6zB859tz35N77A7_o4x-12" edge="1">
          <mxGeometry width="50" height="50" relative="1" as="geometry">
            <mxPoint x="161" y="730" as="sourcePoint" />
            <mxPoint x="420" y="480" as="targetPoint" />
          </mxGeometry>
        </mxCell>
        <mxCell id="zUFLxeMOSW5_unwBI3rd-27" value="Система тестирования семантической сети" style="rounded=0;whiteSpace=wrap;html=1;fillColor=#e1d5e7;strokeColor=#9673a6;" parent="1" vertex="1">
          <mxGeometry x="100" y="730" width="120" height="60" as="geometry" />
        </mxCell>
        <mxCell id="zUFLxeMOSW5_unwBI3rd-30" value="" style="endArrow=classic;html=1;rounded=0;exitX=1;exitY=0.75;exitDx=0;exitDy=0;entryX=0.83;entryY=1.037;entryDx=0;entryDy=0;entryPerimeter=0;" parent="1" source="zUFLxeMOSW5_unwBI3rd-27" target="L6zB859tz35N77A7_o4x-6" edge="1">
          <mxGeometry width="50" height="50" relative="1" as="geometry">
            <mxPoint x="460" y="620" as="sourcePoint" />
            <mxPoint x="640" y="680" as="targetPoint" />
            <Array as="points">
              <mxPoint x="640" y="775" />
            </Array>
          </mxGeometry>
        </mxCell>
        <mxCell id="zUFLxeMOSW5_unwBI3rd-31" value="Возможные вопросы" style="text;html=1;strokeColor=none;fillColor=none;align=center;verticalAlign=middle;whiteSpace=wrap;rounded=0;rotation=0;" parent="1" vertex="1">
          <mxGeometry x="324" y="780" width="160" height="25" as="geometry" />
        </mxCell>
        <mxCell id="zUFLxeMOSW5_unwBI3rd-32" value="Узлы, связи" style="text;html=1;strokeColor=none;fillColor=none;align=center;verticalAlign=middle;whiteSpace=wrap;rounded=0;rotation=-90;" parent="1" vertex="1">
          <mxGeometry x="78" y="555" width="150" height="30" as="geometry" />
        </mxCell>
        <mxCell id="c6Gkx81E4krooWsUWc5J-1" value="" style="endArrow=classic;html=1;rounded=0;exitX=0.75;exitY=1;exitDx=0;exitDy=0;entryX=1;entryY=0.667;entryDx=0;entryDy=0;entryPerimeter=0;" parent="1" source="L6zB859tz35N77A7_o4x-6" target="zUFLxeMOSW5_unwBI3rd-27" edge="1">
          <mxGeometry width="50" height="50" relative="1" as="geometry">
            <mxPoint x="150" y="490" as="sourcePoint" />
            <mxPoint x="200" y="440" as="targetPoint" />
            <Array as="points">
              <mxPoint x="630" y="770" />
            </Array>
          </mxGeometry>
        </mxCell>
        <mxCell id="c6Gkx81E4krooWsUWc5J-2" value="Запрос на получение возможных вопросов" style="text;html=1;strokeColor=none;fillColor=none;align=center;verticalAlign=middle;whiteSpace=wrap;rounded=0;" parent="1" vertex="1">
          <mxGeometry x="280" y="740" width="296" height="30" as="geometry" />
        </mxCell>
        <mxCell id="EAd7F_c0ZRftx3UEPTdP-1" value="Данные" style="text;html=1;align=center;verticalAlign=middle;resizable=0;points=[];autosize=1;strokeColor=none;fillColor=none;" vertex="1" parent="1">
          <mxGeometry x="220" y="271" width="70" height="30" as="geometry" />
        </mxCell>
      </root>
    </mxGraphModel>
  </diagram>
</mxfile>
